HIERARCHY
ROOT Hips
{
	OFFSET 0.000000 88.474243 0.000000
	CHANNELS 6 Xposition Yposition Zposition Zrotation Yrotation Xrotation 
	JOINT Hips_Spine
	{
		OFFSET 0.000000 0.000000 0.000000
		CHANNELS 3 Zrotation Yrotation Xrotation
		JOINT Spine
		{
			OFFSET 0.005100 8.711998 -0.691000
			CHANNELS 3 Zrotation Yrotation Xrotation
			JOINT Spine1
			{
				OFFSET -0.009200 8.660301 -1.275000
				CHANNELS 3 Zrotation Yrotation Xrotation
				JOINT Spine2
				{
					OFFSET 0.006300 9.852501 -1.857000
					CHANNELS 3 Zrotation Yrotation Xrotation
					JOINT Spine2_Neck
					{
						OFFSET 0.000000 0.000000 0.000000
						CHANNELS 3 Zrotation Yrotation Xrotation
						JOINT Neck
						{
							OFFSET 0.016300 11.420799 -0.263300
							CHANNELS 3 Zrotation Yrotation Xrotation
							End Site #name: Head
							{
								OFFSET -0.019200 9.262405 2.362500
							}
						}
					}
					JOINT Spine2_LeftShoulder
					{
						OFFSET 0.000000 0.000000 0.000000
						CHANNELS 3 Zrotation Yrotation Xrotation
						JOINT LeftShoulder
						{
							OFFSET 5.616900 6.732201 -0.345700
							CHANNELS 3 Zrotation Yrotation Xrotation
							JOINT LeftArm
							{
								OFFSET 10.664888 -0.183372 -2.440700
								CHANNELS 3 Zrotation Yrotation Xrotation
								JOINT LeftForeArm
								{
									OFFSET 27.459126 0.000000 0.000000
									CHANNELS 3 Zrotation Yrotation Xrotation
									End Site #name: LeftHand
									{
										OFFSET 21.306858 0.000000 0.000000
									}
								}
							}
						}
					}
					JOINT Spine2_RightShoulder
					{
						OFFSET 0.000000 0.000000 0.000000
						CHANNELS 3 Zrotation Yrotation Xrotation
						JOINT RightShoulder
						{
							OFFSET -5.580300 6.737503 -0.344400
							CHANNELS 3 Zrotation Yrotation Xrotation
							JOINT RightArm
							{
								OFFSET -10.679335 -0.188484 -2.383900
								CHANNELS 3 Zrotation Yrotation Xrotation
								JOINT RightForeArm
								{
									OFFSET -27.503529 0.000000 0.000000
									CHANNELS 3 Zrotation Yrotation Xrotation
									End Site #name: RightHand
									{
										OFFSET -21.306808 0.000000 0.000000
									}
								}
							}
						}
					}
				}
			}
		}
	}
	JOINT Hips_LeftUpLeg
	{
		OFFSET 0.000000 0.000000 0.000000
		CHANNELS 3 Zrotation Yrotation Xrotation
		JOINT LeftUpLeg
		{
			OFFSET 6.857700 -6.739601 0.312100
			CHANNELS 3 Zrotation Yrotation Xrotation
			JOINT LeftLeg
			{
				OFFSET -0.367590 -34.731552 -4.572400
				CHANNELS 3 Zrotation Yrotation Xrotation
				End Site #name: LeftFoot
				{
					OFFSET 0.367590 -34.656704 -6.067400
				}
			}
		}
	}
	JOINT Hips_RightUpLeg
	{
		OFFSET 0.000000 0.000000 0.000000
		CHANNELS 3 Zrotation Yrotation Xrotation
		JOINT RightUpLeg
		{
			OFFSET -6.876100 -6.733299 0.301000
			CHANNELS 3 Zrotation Yrotation Xrotation
			JOINT RightLeg
			{
				OFFSET 0.347353 -34.795158 -4.515900
				CHANNELS 3 Zrotation Yrotation Xrotation
				End Site #name: RightFoot
				{
					OFFSET -0.347353 -34.589367 -6.070300
				}
			}
		}
	}
}
MOTION
Frames: 15
Frame Time: 0.041667
-0.210646 0.323052 -2.536919 -0.874203 22.758147 -6.901286 -0.000000 0.000000 0.000000 2.113996 0.938891 -3.631845 1.768271 -0.281559 -1.416180 0.000000 0.000000 0.000000 2.287414 -0.390168 -1.810132 1.958685 -3.251665 -0.445300 1.597635 -0.612541 -1.420652 -22.246633 -0.859244 5.354394 -46.925894 14.156531 17.872144 -0.613432 -20.895191 4.685762 1.471400 -0.157145 -0.433665 14.223274 8.043696 2.325043 58.329492 6.876708 -3.725827 0.559900 38.920937 -0.519578 0.000000 -0.000000 -0.000000 -3.964223 19.505502 -7.249334 4.282635 10.298523 22.109567 0.000000 0.000000 0.000000 -3.655635 -3.073394 -14.149828 1.270723 -5.113438 11.021153 
-0.433957 0.303452 -2.659384 -1.172166 23.176675 -7.099545 -0.000000 0.000000 0.000000 2.761898 1.234224 -3.608105 1.963055 -0.244982 -1.367361 0.000000 0.000000 0.000000 2.447999 -0.316415 -1.760653 2.076899 -3.232046 -0.265060 1.808611 -0.562426 -1.276191 -21.723118 -0.670148 5.383380 -47.747047 14.759448 17.851929 -0.670004 -21.855296 4.590668 1.662970 -0.081806 -0.428652 14.342212 8.420491 2.426213 58.084208 6.802602 -3.592744 0.561027 39.280881 -0.525125 0.000000 -0.000000 -0.000000 -3.365514 19.648959 -7.256427 4.280370 10.447411 21.994636 0.000000 0.000000 0.000000 -2.903968 -3.206754 -14.437001 1.309928 -5.339084 11.459295 
-0.621745 0.287646 -2.772464 -1.478011 23.637395 -7.308049 -0.000000 0.000000 0.000000 3.343218 1.483238 -3.479047 2.131023 -0.208243 -1.317786 0.000000 0.000000 0.000000 2.576890 -0.247736 -1.708328 2.196490 -3.226798 -0.085975 1.994442 -0.516028 -1.144486 -21.260561 -0.499097 5.396887 -48.490897 15.275344 17.825309 -0.728295 -22.774057 4.513353 1.827067 -0.004355 -0.417143 14.441170 8.735991 2.540814 57.893895 6.731161 -3.473286 0.564205 39.632662 -0.527439 0.000000 -0.000000 -0.000000 -2.740620 19.580910 -7.386282 4.205322 10.517540 22.149488 0.000000 -0.000000 0.000000 -2.213110 -3.361539 -14.732056 1.363079 -5.578275 11.972023 
-0.760927 0.275873 -2.876428 -1.756060 24.075344 -7.511435 -0.000000 0.000000 0.000000 3.766758 1.557829 -3.312254 2.278728 -0.179167 -1.270901 0.000000 0.000000 0.000000 2.690239 -0.189359 -1.663712 2.308250 -3.230044 0.098085 2.158307 -0.474821 -1.029174 -20.868011 -0.360045 5.396116 -49.172312 15.709516 17.775389 -0.778928 -23.635582 4.452383 1.961009 0.068533 -0.409902 14.540486 9.007066 2.642940 57.744505 6.663222 -3.368188 0.567961 39.990799 -0.527546 0.000000 -0.000000 -0.000000 -2.138949 19.473159 -7.556147 4.098091 10.545782 22.484330 0.000000 -0.000000 0.000000 -1.621946 -3.454761 -15.044725 1.439509 -5.796080 12.578653 
-0.838258 0.266232 -2.973555 -1.962516 24.259221 -7.673359 -0.000000 -0.000000 0.000000 4.047330 1.550052 -3.138865 2.412155 -0.159386 -1.226797 0.000000 0.000000 0.000000 2.793636 -0.142555 -1.624335 2.426085 -3.183644 0.203318 2.303963 -0.441197 -0.926916 -20.499068 -0.284485 5.367063 -49.718232 16.031951 17.663846 -0.828511 -24.395606 4.385885 2.079767 0.126010 -0.405492 14.663644 9.260799 2.724529 57.614163 6.636218 -3.233504 0.572818 40.352062 -0.526814 0.000000 -0.000000 -0.000000 -1.658572 19.323307 -7.702930 4.041325 10.566440 22.875163 0.000000 -0.000000 0.000000 -1.167201 -3.389521 -15.362605 1.534035 -6.042048 13.209342 
-0.850236 0.254413 -3.066053 -2.070357 24.093120 -7.758687 -0.000000 -0.000000 0.000000 4.224747 1.497042 -2.955436 2.534829 -0.152899 -1.191230 0.000000 0.000000 0.000000 2.887485 -0.109307 -1.587587 2.522336 -3.140616 0.306444 2.435510 -0.418668 -0.842745 -20.195079 -0.264237 5.344018 -50.199972 16.205360 17.501050 -0.865493 -24.977725 4.336062 2.185762 0.163589 -0.406486 14.799886 9.491586 2.783541 57.486397 6.695290 -3.027424 0.579460 40.725495 -0.526043 0.000000 -0.000000 -0.000000 -1.318877 19.106654 -7.776183 4.006975 10.587344 23.245333 0.000000 -0.000000 0.000000 -0.836238 -3.162025 -15.732010 1.626403 -6.303885 13.864073 
-0.792297 0.238796 -3.151057 -2.069446 23.573136 -7.766297 -0.000000 -0.000000 0.000000 4.299264 1.392059 -2.788351 2.646262 -0.159109 -1.157521 0.000000 0.000000 0.000000 2.972693 -0.089871 -1.552238 2.593959 -3.103791 0.406337 2.551342 -0.408508 -0.772711 -19.984832 -0.297792 5.319228 -50.569020 16.327194 17.398186 -0.892463 -25.374382 4.324520 2.279472 0.180791 -0.396275 14.930142 9.678912 2.824077 57.359896 6.854877 -2.769465 0.585331 41.135461 -0.523858 0.000000 -0.000000 -0.000000 -1.097850 18.851214 -7.726765 3.892326 10.573213 23.521479 0.000000 -0.000000 0.000000 -0.627860 -2.860554 -16.130423 1.745567 -6.536180 14.452133 
-0.662483 0.218347 -3.226894 -1.968988 22.796689 -7.711305 -0.000000 -0.000000 0.000000 4.283692 1.263023 -2.649264 2.744536 -0.177232 -1.127819 0.000000 0.000000 0.000000 3.047829 -0.083224 -1.516756 2.639027 -3.073106 0.500095 2.653119 -0.412602 -0.718175 -19.854165 -0.341785 5.280228 -50.856217 16.378722 17.332706 -0.913319 -25.659544 4.341272 2.358949 0.181130 -0.374412 15.050825 9.817754 2.852488 57.233628 7.099838 -2.471970 0.592227 41.606405 -0.523012 0.000000 -0.000000 -0.000000 -0.978037 18.507050 -7.480663 3.647767 10.569092 23.605960 0.000000 -0.000000 0.000000 -0.541184 -2.427059 -16.564209 1.948410 -6.636460 15.021286 
-0.461810 0.195633 -3.289243 -1.796676 21.860682 -7.618551 -0.000000 -0.000000 0.000000 4.222552 1.117504 -2.539827 2.830456 -0.205791 -1.099432 0.000000 0.000000 0.000000 3.113079 -0.086229 -1.482448 2.656864 -3.046272 0.587490 2.739793 -0.424434 -0.676126 -19.790903 -0.397010 5.220272 -51.073871 16.365748 17.326736 -0.930748 -25.837577 4.364337 2.427306 0.167872 -0.357645 15.143141 9.914963 2.871046 57.105726 7.391524 -2.180585 0.600934 42.130747 -0.522439 0.000000 -0.000000 -0.000000 -0.935873 18.195441 -7.161561 3.164548 10.422295 23.557699 0.000000 -0.000000 0.000000 -0.577771 -1.899856 -16.983200 2.146823 -6.731190 15.620912 
-0.196627 0.172656 -3.335514 -1.559367 20.615049 -7.497588 -0.000000 -0.000000 0.000000 4.150019 0.972873 -2.476577 2.908832 -0.243212 -1.075514 0.000000 0.000000 0.000000 3.173260 -0.096966 -1.449766 2.652713 -3.026421 0.669911 2.816802 -0.446670 -0.650240 -19.798029 -0.443547 5.158885 -51.209371 16.303950 17.412866 -0.944518 -25.943882 4.389825 2.487842 0.140648 -0.348594 15.195615 9.983152 2.878046 57.006017 7.673348 -1.944410 0.608268 42.623307 -0.522628 0.000000 -0.000000 -0.000000 -0.987769 17.887007 -6.972943 2.828094 10.334007 23.687888 0.000000 -0.000000 0.000000 -0.713654 -1.286510 -17.374670 2.323933 -6.818363 16.217491 
0.125816 0.148552 -3.368610 -1.324803 19.475868 -7.370978 -0.000000 -0.000000 0.000000 4.115016 0.840640 -2.448996 2.982609 -0.285958 -1.063066 0.000000 0.000000 0.000000 3.224559 -0.111719 -1.423088 2.631418 -3.011917 0.745920 2.887236 -0.475759 -0.643964 -19.878643 -0.482870 5.096050 -51.253907 16.181670 17.538898 -0.955550 -25.992567 4.410008 2.545213 0.102593 -0.350254 15.204414 10.023966 2.872671 56.944775 7.911048 -1.773387 0.617148 43.031491 -0.521749 0.000000 -0.000000 -0.000000 -1.164868 17.514540 -6.940777 2.548200 10.211416 23.824911 0.000000 -0.000000 0.000000 -0.911045 -0.688346 -17.726710 2.481842 -6.872515 16.803591 
0.503186 0.121799 -3.390643 -1.125150 18.531578 -7.259729 -0.000000 -0.000000 0.000000 4.102982 0.742112 -2.462755 3.054670 -0.327893 -1.066798 0.000000 0.000000 0.000000 3.262959 -0.125243 -1.405540 2.601181 -3.001838 0.817148 2.952967 -0.508036 -0.658539 -20.018970 -0.507666 5.026747 -51.215215 16.026382 17.661734 -0.970251 -26.024593 4.403798 2.600763 0.060112 -0.365272 15.162816 10.042251 2.856883 56.908855 8.051696 -1.654183 0.623967 43.315465 -0.523477 0.000000 -0.000000 -0.000000 -1.441266 17.166293 -6.950744 2.275055 9.993356 23.875922 0.000000 -0.000000 0.000000 -1.146374 -0.114002 -18.043733 2.627048 -6.879912 17.364431 
0.932810 0.092054 -3.401513 -0.977162 17.753409 -7.178363 -0.000000 -0.000000 0.000000 4.085925 0.684832 -2.498267 3.122437 -0.364066 -1.087344 0.000000 0.000000 0.000000 3.298972 -0.136389 -1.398761 2.569670 -2.999366 0.881839 3.014328 -0.538202 -0.688921 -20.213890 -0.509113 4.945124 -51.095814 15.928459 17.693793 -0.981241 -26.048650 4.376857 2.652621 0.019257 -0.392729 15.081148 10.050471 2.839191 56.903644 8.110972 -1.581185 0.631164 43.432793 -0.521907 0.000000 -0.000000 -0.000000 -1.765378 16.883282 -6.978805 1.969147 9.546628 23.960018 0.000000 -0.000000 0.000000 -1.406456 0.369660 -18.322819 2.738360 -6.877232 17.932237 
1.407243 0.058951 -3.401422 -0.865321 17.096554 -7.139292 -0.000000 -0.000000 0.000000 4.043273 0.666828 -2.557670 3.189778 -0.391919 -1.120148 0.000000 0.000000 0.000000 3.333264 -0.145071 -1.404991 2.545499 -3.005986 0.939523 3.071871 -0.560769 -0.730149 -20.424060 -0.511790 4.857474 -50.937146 15.965771 17.636921 -0.990195 -26.015882 4.322029 2.704844 -0.015955 -0.429253 14.955446 10.055657 2.820765 56.916069 8.095356 -1.540404 0.636806 43.397981 -0.517774 0.000000 -0.000000 -0.000000 -2.121308 16.609254 -7.024597 1.779792 9.066685 24.147038 0.000000 -0.000000 0.000000 -1.710102 0.660139 -18.508693 2.816866 -6.873283 18.447627 
1.916897 0.022543 -3.394898 -0.780426 16.490462 -7.119942 -0.000000 -0.000000 0.000000 3.993497 0.679351 -2.655967 3.261468 -0.413897 -1.164500 0.000000 0.000000 0.000000 3.370644 -0.149686 -1.420181 2.528738 -3.025147 0.992645 3.131444 -0.578279 -0.779650 -20.646658 -0.511547 4.776489 -50.725905 16.123916 17.463415 -1.000788 -25.940053 4.249236 2.758635 -0.042863 -0.472169 14.793517 10.076997 2.808037 56.945364 7.997056 -1.540236 0.643998 43.272622 -0.508477 0.000000 -0.000000 -0.000000 -2.504715 16.440214 -7.087639 1.583970 8.239541 24.519338 0.000000 -0.000000 0.000000 -2.059477 0.718190 -18.632838 2.865341 -6.843484 18.983384 
